<?xml version="1.0" standalone="no"?><!DOCTYPE svg PUBLIC "-//W3C//DTD SVG 1.1//EN" "http://www.w3.org/Graphics/SVG/1.1/DTD/svg11.dtd"><svg t="1630237610851" class="icon" viewBox="0 0 1024 1024" version="1.1" xmlns="http://www.w3.org/2000/svg" p-id="1763" xmlns:xlink="http://www.w3.org/1999/xlink" width="200" height="200"><defs><style type="text/css"></style></defs><path d="M91 475s105-12 222 67 180 261 180 261-73-71-177-139c-93.4-61.1-149-6-194-69S91 475 91 475zM971.9 485s-105-12-222 67-180 261-180 261 73-71 177-139c93.4-61.1 149-6 194-69s31-120 31-120z" fill="#FFF5CC" p-id="1764"></path><path d="M261 213s171.5 162.5 195.5 287.5S492 864 492 864s-41.2-192.1-124.9-257.3-101.6-77.2-129.6-167.2S261 213 261 213zM807.2 213S635.7 375.5 611.7 500.5 576.2 864 576.2 864 617.4 671.9 701 606.7s101.6-77.2 129.6-167.2S807.2 213 807.2 213z" fill="#FFFCEB" p-id="1765"></path><path d="M518 106S296 210 358 410s175 428 175 428 135.6-262.3 170.8-444.2S518 106 518 106z" fill="#FFFCEB" p-id="1766"></path><path d="M445.6 785.7c-9-24.5 25.3-47.7 88.4-48.2s96.6 21.4 96.6 44.5-82 117.8-135.1 137.4C442.4 939 419.3 939 393.9 939s-27.7-45 19.6-62.3c47.4-17.4 41.1-66.5 32.1-91z" fill="#2C4432" p-id="1767"></path><path d="M413.5 749c-2.3 0-4.6-0.8-6.4-2.3-28.3-23.8-73.3-59.5-126.5-94.3-43.5-28.5-78-30.4-108.4-32.1-32.2-1.8-62.5-3.5-88.3-39.5-47.1-66-33.2-125.7-32.6-128.2 1-4.1 4.4-7.1 8.6-7.5 3.2-0.4 79.9-8.5 176.1 38.2 5 2.4 7 8.4 4.6 13.4-2.4 5-8.4 7-13.4 4.6-74.2-36-136.6-37.5-157.6-36.8-1.7 16.4-2.2 59 30.5 104.7 20.2 28.2 41.2 29.4 73.1 31.1 31.3 1.7 70.2 3.9 118.2 35.3 54.1 35.3 99.7 71.6 128.5 95.7 4.2 3.6 4.8 9.9 1.2 14.1-1.9 2.4-4.8 3.6-7.6 3.6zM716.9 664c-3.3 0-6.5-1.6-8.4-4.5-3-4.6-1.7-10.8 2.9-13.8 48-31.4 86.9-33.6 118.2-35.3 31.9-1.8 53-2.9 73.1-31.1 12.6-17.5 21.5-36.4 26.6-56 5.6-21.9 5-39.5 4-48.7-21.4-0.7-86.5 1-162.7 39.3-4.9 2.5-10.9 0.5-13.4-4.4s-0.5-10.9 4.4-13.4c98.6-49.7 178.1-41.3 181.4-40.9 4.2 0.5 7.6 3.5 8.6 7.6 0.3 1.1 6.7 28.2-2.9 65.6-5.7 22-15.7 43.1-29.7 62.6-25.7 36-56.1 37.7-88.3 39.5-30.4 1.7-64.8 3.6-108.4 32.1-1.6 0.9-3.5 1.4-5.4 1.4zM600.6 749.7c-2.9 0-5.8-1.2-7.7-3.7-3.5-4.3-2.9-10.6 1.4-14.1 22.1-18.2 44.4-35.4 66.2-51.2 4.5-3.2 10.7-2.2 14 2.2 3.2 4.5 2.2 10.7-2.2 14-21.5 15.5-43.4 32.5-65.2 50.4-2 1.7-4.3 2.4-6.5 2.4zM313.7 292.5c-2.9 0-5.7-1.2-7.7-3.6-42.6-51.3-81.5-88.3-81.9-88.6-4-3.8-4.2-10.1-0.4-14.1 3.8-4 10.1-4.2 14.1-0.4 0.4 0.4 40.1 38.1 83.5 90.4 3.5 4.2 2.9 10.6-1.3 14.1-1.8 1.4-4 2.2-6.3 2.2zM201.2 330.4c-0.4 0-0.7 0-1.1-0.1-5.5-0.6-9.5-5.5-8.9-11 1.7-15.9 4.3-32.5 7.7-49.1 1.1-5.4 6.4-8.9 11.8-7.8 5.4 1.1 8.9 6.4 7.8 11.8-3.3 16.1-5.8 32-7.5 47.3-0.4 5.1-4.7 8.9-9.8 8.9z" fill="#212121" p-id="1768"></path><path d="M427.3 740.2c-4 0-7.8-2.4-9.3-6.4-25.7-66.8-55.8-114.9-87-139.2l-7.1-5.5c-39.6-30.9-63.6-49.5-81.8-72.4-17.7-22.1-29.6-47.6-44.1-94.2-1.6-5.3 1.3-10.9 6.6-12.5 5.3-1.6 10.9 1.3 12.5 6.6 26.3 84.4 42.3 96.9 119.1 156.8l7.1 5.5c34.6 26.9 66 76.6 93.4 147.8 2 5.2-0.6 10.9-5.7 12.9-1.3 0.4-2.5 0.6-3.7 0.6zM582.3 736.3c-1.2 0-2.4-0.2-3.6-0.7-5.1-2-7.7-7.8-5.7-13 27-69 57.9-117.5 91.9-143.9l7.1-5.5c76.9-59.9 92.9-72.4 119.1-156.8 9.5-30.4 10.5-70.1 2.9-117.8-5.8-36.7-15.3-69.5-21.1-87.5-16.7 16.8-49.9 51.3-83.4 93.3-3.4 4.3-9.7 5-14.1 1.6-4.3-3.4-5-9.7-1.6-14.1 48.2-60.4 96-105.9 96.4-106.3 2.4-2.3 5.9-3.2 9.1-2.5 3.3 0.8 5.9 3.1 7.1 6.2 0.7 2 18.2 48.7 27.2 106.2 8.1 50.8 6.9 93.4-3.5 126.8-14.5 46.6-26.4 72.1-44.1 94.2-18.3 22.9-42.2 41.5-81.8 72.4l-7.1 5.5c-30.7 23.9-60.2 70.7-85.5 135.5-1.5 4-5.3 6.4-9.3 6.4z" fill="#212121" p-id="1769"></path><path d="M455.5 726.7c-3.8 0-7.5-2.2-9.1-5.9-38.6-85.8-92.2-212.4-128-327.8-14.8-47.6-15.1-94-1.1-137.9 11.2-34.9 31.4-68.2 60.1-98.9 48.5-51.8 104-78.1 106.3-79.2 2.7-1.3 5.9-1.3 8.6 0 2.3 1.1 57.3 27.8 108.7 77.6 30.4 29.5 53.2 60.9 67.7 93.5 18.3 41.2 23.3 84.1 14.9 127.6-21.2 109.7-78.4 248.1-122.6 344.9-2.3 5-8.2 7.2-13.3 4.9-5-2.3-7.2-8.2-4.9-13.3 43.8-95.8 100.3-232.6 121.2-340.3 7.6-39.4 3.1-78.4-13.5-115.7-13.4-30.2-34.7-59.6-63.3-87.3-41.1-39.8-85.4-64.5-99.2-71.7-13.7 7.1-57.9 31.9-96.3 73.1-26.6 28.5-45.2 59.2-55.4 91.2-12.6 39.8-12.2 82 1.3 125.6 35.5 114.5 88.7 240.2 127.1 325.6 2.3 5 0 11-5 13.2-1.4 0.5-2.8 0.8-4.2 0.8z" fill="#212121" p-id="1770"></path><path d="M363.9 929c-14.1 0-24.8-9.3-27.3-23.6-3.4-19.1 8.8-45.4 43.5-58.1 17.5-6.4 27.6-18 30.8-35.3 3.4-18.7-2.7-37.6-4.7-42.9-3.7-10.1-2.3-20.7 4.1-29.8 13.5-19.6 48.6-31.5 93.7-31.8 57.9-0.5 83.8 16.6 94.1 26.8 8.2 8.2 12.6 17.7 12.6 27.7 0 21.9-41.9 67.9-50.3 76.8-46.7 50-79.4 65.5-91.3 69.9C414.2 929 389.8 929 363.9 929zM506 727.5h-1.9c-45.5 0.4-70.1 12.7-77.4 23.2-2.7 3.8-3.2 7.5-1.7 11.5 3.1 8.4 9.8 30.4 5.5 53.4-4.4 24.1-19.5 41.6-43.6 50.4-25.5 9.3-32.3 26.5-30.7 35.8 0.8 4.7 3.4 7.1 7.6 7.1 25.1 0 46.7 0 98.1-19 21.9-8.1 53.2-32.3 83.5-64.7 31.7-33.9 45-57.9 45-63.3 0-4.6-2.2-9.1-6.6-13.5-13.2-13.1-42.2-20.9-77.8-20.9z" fill="#212121" p-id="1771"></path><path d="M473.4 621.5c-5.3 1.8-10.9-1.1-12.7-6.4-13-39.6-60.8-189.2-68.3-259.2-3.7-34.9 8-72.2 34-107.6 11.8-16.2 24.3-28.7 32.2-36 4.3-4 11-3.4 14.6 1.1 3.2 4.1 2.8 10-1 13.5-18.3 17-66.3 67.9-60 126.8 7.2 67.2 54.8 216.3 67.4 255.2 1.9 5.2-0.9 10.8-6.2 12.6z" fill="#FFF5CC" p-id="1772"></path></svg>